<?xml version="1.0" encoding="UTF-8"?>
<!DOCTYPE svg PUBLIC "-//W3C//DTD SVG 1.1//EN" "http://www.w3.org/Graphics/SVG/1.1/DTD/svg11.dtd">
<!-- Creator: CorelDRAW X7 -->
<svg xmlns="http://www.w3.org/2000/svg" xml:space="preserve" width="632px" height="676px" version="1.1" style="shape-rendering:geometricPrecision; text-rendering:geometricPrecision; image-rendering:optimizeQuality; fill-rule:evenodd; clip-rule:evenodd"
viewBox="0 0 635 679"
 xmlns:xlink="http://www.w3.org/1999/xlink">
 <defs>
  <style type="text/css">
   <![CDATA[
    .fil0 {fill:#2B2A29}
   ]]>
  </style>
 </defs>
 <g id="Layer_x0020_1">
  <metadata id="CorelCorpID_0Corel-Layer"/>
  <path class="fil0" d="M317 140c39,0 70,-31 70,-70 0,-38 -31,-70 -70,-70 -38,0 -70,32 -70,70 0,39 32,70 70,70z"/>
  <path class="fil0" d="M255 211c-26,0 -47,21 -47,46 0,26 21,47 47,47 26,0 47,-20 47,-47 0,-25 -21,-46 -47,-46z"/>
  <path class="fil0" d="M47 190c-26,0 -47,21 -47,47 0,25 21,47 47,47 26,0 47,-22 47,-47 -1,-26 -21,-47 -47,-47z"/>
  <path class="fil0" d="M333 257c0,26 21,47 47,47 26,0 47,-20 47,-47 0,-25 -21,-46 -47,-46 -26,0 -47,21 -47,46z"/>
  <path class="fil0" d="M588 190c-26,0 -47,21 -47,47 0,25 21,47 47,47 26,0 47,-22 47,-47 0,-26 -21,-47 -47,-47z"/>
  <path class="fil0" d="M255 336c-26,0 -47,21 -47,46 0,26 21,47 47,47 26,0 47,-21 47,-47 0,-25 -21,-46 -47,-46z"/>
  <path class="fil0" d="M426 382c0,-25 -20,-46 -46,-46 -26,0 -47,21 -47,46 0,26 20,47 47,47 26,0 46,-21 46,-47z"/>
  <path class="fil0" d="M193 585c-26,0 -47,22 -47,47 0,26 21,47 47,47 25,0 47,-20 47,-47 -1,-26 -22,-47 -47,-47z"/>
  <path class="fil0" d="M442 585c-26,0 -47,22 -47,47 0,26 21,47 47,47 26,0 47,-20 47,-47 0,-26 -21,-47 -47,-47z"/>
 </g>
</svg>
