<?xml version="1.0" encoding="utf-8"?>
<!-- Generator: Adobe Illustrator 17.0.0, SVG Export Plug-In . SVG Version: 6.00 Build 0)  -->
<!DOCTYPE svg PUBLIC "-//W3C//DTD SVG 1.1//EN" "http://www.w3.org/Graphics/SVG/1.1/DTD/svg11.dtd">
<svg version="1.1" id="Layer_1" xmlns="http://www.w3.org/2000/svg" xmlns:xlink="http://www.w3.org/1999/xlink" x="0px" y="0px"
	 width="663.522px" height="1298.821px" viewBox="0 0 663.522 1298.821" enable-background="new 0 0 663.522 1298.821"
	 xml:space="preserve">
<path d="M663.486,366.485c-0.524-103.188-35.924-194.139-93.611-259.611C511.17,40.246,429.433,0,337.87,0
	C244.098,0,160.405,41.914,99.76,108.266C38.419,175.379,0.687,267.506,0.03,366.485H0c0,1.444,0.005,2.911,0.015,4.403v4.645
	l0.048-0.006c0.403,29.22,2.878,67.071,10.788,114.418c8.719,52.191,24.072,115.945,50.602,192.405v0.022
	c35.97,102.307,54.615,187.8,55.936,256.479c-0.356,10.59,0.868,19.348,3.672,26.271c2.781,6.866,7.063,11.958,12.845,15.274
	c4.891,9.617,10.106,18.189,15.641,25.714c5.3,7.206,10.889,13.434,16.763,18.682l8.852,3.131h9.38
	c0.147,1.956,0.258,3.399,0.274,3.54c1.401,12.359,3.859,39.243,5.266,55.773c2.977,34.373,6.355,74.231,11.801,99.717l3.929,19.647
	c1.823,3.332,9.629,11.638,21.625,22.486c4.858,4.32,10.543,9.306,16.934,14.566l-0.803-0.068l21.01,16.61
	c7.417,5.921,15.338,11.924,23.66,18.01c7.504,5.618,15.508,11.219,23.821,17.008c4.513,3.03,20.516,3.338,28.317,3.447
	c1.201,0.057,2.102,0.023,3.102,0.086l0.603,0.076l0.694-0.124c0.997-0.141,1.895-0.174,3.089-0.316
	c7.771-0.693,23.707-2.183,27.88-5.536c7.962-6.394,15.529-12.574,22.595-18.733c7.749-6.684,15.303-13.262,22.259-19.717
	l19.718-18.123l-0.796,0.127c5.984-5.72,11.182-11.111,15.705-15.778c11.26-11.713,18.328-20.572,19.899-24.03l2.626-20.789
	c3.442-25.818,3.872-65.316,4.304-99.417c0.12-11.266,0.234-30.298,0.446-40.997c0.008-0.382,0.015-3.635,0.023-7.465h7.997h0.991
	l3.654-1.351c6.621-5.597,12.886-12.411,18.796-20.442c5.541-7.53,10.76-16.108,15.655-25.733
	c5.782-3.316,10.064-8.408,12.845-15.275c2.804-6.924,4.028-15.681,3.673-26.271c1.321-68.678,19.966-154.171,55.936-256.479v-0.022
	c26.528-76.454,41.881-138.932,50.602-190.493c7.987-47.221,10.432-85.291,10.799-116.567l0.028,0.004v-2.862
	c0.016-2.01,0.024-3.993,0.024-5.947H663.486z M139.522,970.577c-3.513-2.036-6.169-5.273-7.964-9.707
	c-2.226-5.497-3.184-12.756-2.872-21.775v-0.266c-1.32-69.958-20.173-156.685-56.56-260.178l-0.007,0.002
	c-26.26-75.689-41.466-138.843-50.107-190.57c-4.707-28.177-7.458-52.958-8.984-74.518c7.757-0.974,15.504-1.914,23.241-2.819
	c1.921,38.776,7.434,80.308,16.542,124.596c9.477,46.083,22.809,95.064,39.995,146.941l0.022,0.044
	c16.011,46.841,28.595,93.016,37.75,138.524c9.156,45.513,14.912,90.463,17.266,134.847l0.029,0.558l0.148,0.571
	c1.209,4.681,2.901,8.921,5.074,12.718c0.145,0.253,0.292,0.505,0.441,0.754C148.867,970.389,144.196,970.482,139.522,970.577z
	 M167.427,970.047c-1.711-1.833-3.211-3.875-4.499-6.125c-1.617-2.826-2.892-5.952-3.821-9.377
	c-2.399-44.683-8.218-89.986-17.457-135.907c-9.276-46.11-21.973-92.742-38.089-139.895l0.006-0.002
	c-17.104-51.634-30.333-100.187-39.685-145.656c-9.052-44.017-14.507-85.227-16.362-123.63c15.636-1.764,31.232-3.388,46.791-4.871
	c4.837,100.57,28.548,192.864,52.105,284.554c22.807,88.775,45.47,176.983,50.47,271.241l0.03,0.558l0.148,0.571
	c0.896,3.469,1.684,5.926,2.691,8.027C188.987,969.687,178.211,969.858,167.427,970.047z M266.296,660.117
	c10.742,107.979,21.201,213.12,21.601,308.589c-11.295,0.052-22.605,0.126-33.93,0.22c-1.811-2.546-1.94-5.52-2.125-9.796
	c-0.054-1.247-0.111-2.568-0.173-3.585l-0.002,0c-5.014-94.453-21.295-182.873-37.672-271.815
	C197,591.436,179.902,498.573,175.303,398.109c23.237-1.497,46.386-2.674,69.447-3.532
	C248.632,482.57,257.557,572.28,266.296,660.117z M256.047,394.182c22.742-0.744,45.398-1.178,67.969-1.3V968.61
	c-8.253,0.006-16.513,0.023-24.782,0.051c-0.403-95.683-10.904-201.243-21.688-309.651
	C268.823,571.332,259.915,481.784,256.047,394.182z M202.877,685.768c16.309,88.574,32.523,176.626,37.497,270.397v0.044
	c0.088,1.463,0.132,2.467,0.173,3.408c0.156,3.62,0.287,6.639,0.986,9.421l-6.21,0.062c-7.189,0.074-14.381,0.157-21.576,0.248
	c-1.54-1.473-2.563-2.558-3.229-3.62c-0.861-1.374-1.512-3.247-2.368-6.498c-5.117-95.093-27.881-183.704-50.792-272.882
	c-23.451-91.277-47.054-183.156-51.779-282.814c19.542-1.78,39.023-3.338,58.443-4.673
	C168.674,500.014,185.828,593.176,202.877,685.768z M388.671,1258.78c-7.165,6.265-14.629,12.436-22.105,18.414
	c-0.773,0.627-13.625,1.806-19.903,2.339l-2.985,0.312l-3.001-0.089c-6.398-0.062-19.302-0.284-20.022-0.856
	c-7.998-5.403-15.9-11.004-23.51-16.719l-3.185-2.28l0.201-0.007l0.099-0.004l0.099-0.004l0.097-0.003l0.201-0.008l0.102,0.094
	l0.099-0.004l0.098-0.003l0.2-0.008l0.099-0.004l0.099-0.003l0.098-0.004l0.201-0.008l0.098-0.003l0.099-0.004l0.098-0.004
	l0.102,0.096l0.099-0.004l0.098-0.003l0.098-0.003l0.099-0.005l0.098-0.003l0.099-0.004l0.099-0.003l0.098-0.004l0.202-0.007
	l0.097-0.004l0.099-0.004l0.101,0.094l0.202-0.008l0.098-0.004l0.098-0.003l0.201-0.008l0.099-0.003l0.097-0.003l0.098-0.003
	l0.201-0.008l0.1-0.003l0.102,0.095l0.098-0.004l0.099-0.003l0.098-0.004l0.098-0.004l0.099-0.004l0.201-0.007l0.099-0.004
	l0.098-0.004l0.2-0.007l0.099-0.004l0.099-0.003l0.102,0.096l0.202-0.007l0.098-0.004l0.099-0.004l0.201-0.007l0.098-0.004
	l0.098-0.004l0.099-0.003l0.098-0.004l0.1-0.003l0.099-0.004l0.099-0.004l0.202-0.007l0.003,0.097l0.097-0.003l0.099-0.004
	l0.201-0.008l0.1-0.004l0.098-0.003c12.407,0.339,25.895,0.238,40.768-0.315c14.875-0.553,28.235-1.449,40.581-2.708l0.202-0.008
	l0.099-0.004l0.097-0.004l0.099-0.003l0.099-0.004l0.094-0.101l0.098-0.003l0.099-0.004l0.201-0.008l0.098-0.004l0.099-0.003
	l0.201-0.008l0.099-0.004l0.097-0.003l0.098-0.004l0.202-0.008l0.099-0.003l0.096-0.103l0.098-0.004l0.098-0.004l0.098-0.004
	l0.599-0.022l0.201-0.007l0.099-0.003l0.099-0.004l0.093-0.102l0.202-0.007l0.098-0.004l0.099-0.004l0.201-0.007l0.099-0.004
	l0.201-0.007l0.098-0.003l0.202-0.007l0.094-0.102l0.099-0.003l0.099-0.004l0.098-0.004l0.099-0.003l0.098-0.004l0.201-0.008
	l0.098-0.004l0.099-0.004l0.099-0.003l0.2-0.008l0.098-0.004l0.095-0.103l0.099-0.003l0.2-0.007l0.098-0.004l0.099-0.004l0.1-0.004
	l0.2-0.007l0.099-0.004l0.097-0.004l0.099-0.004l0.198-0.105l0.099-0.004l0.1-0.003l0.098-0.004l0.199-0.008l0.1-0.004
	L388.671,1258.78z M467.44,1034.828c-0.168,9.705-0.269,27.609-0.353,37.42c-0.505,42.997-1.178,94.8-7.201,112.916
	c-14.549,6.54-29.362,11.388-46.724,14.933c-15.973,3.291-34.087,5.362-56.326,6.69l-0.398,0.015l-0.897,0.033l-0.299,0.011
	l-0.997,0.037l-0.3,0.011l-0.996,0.037l-0.299,0.011l-0.995,0.037l-0.202,0.007l-1.095,0.14l-0.2,0.007l-1.1,0.041l-0.2,0.007
	l-1.196,0.045l-0.099,0.003l-1.198,0.045l-0.201,0.007l-1.197,0.045l-0.098,0.003l-1.297,0.048l-1.295,0.049l-0.099,0.004
	l-1.296,0.048l-1.398,0.052l-1.297,0.048l-0.098,0.003l-1.294,0.048l-0.099,0.004l-1.198,0.044l-0.099,0.004l-1.198,0.044
	l-0.201,0.008l-1.099,0.041l-0.201,0.007l-1.098,0.041l-0.299,0.011l-1-0.063l-0.3,0.012l-0.996,0.037l-0.3,0.011l-0.996,0.037
	l-0.299,0.011l-0.898,0.034l-0.398,0.015l-0.898,0.033l-0.399,0.015c-22.178,0.323-40.499-0.394-56.568-2.495
	c-17.573-2.246-32.808-5.978-47.802-11.42c-1.961-4.7-3.714-11.822-5.299-20.549c32.404,3.874,74.242,5.442,119.864,3.926
	l2.395-0.089l2.295-0.084l4.209-0.182l-0.372-10.021c-2.158,0.108-4.325,0.21-6.504,0.304c-38.683,1.187-83.973,0.985-123.566-4.078
	c-1.049-7.003-2.022-14.676-2.934-22.719c32.852,4.179,76.032,5.916,123.268,4.347l2.395-0.089l2.295-0.084l4.209-0.182
	l-0.372-10.021c-2.158,0.108-4.325,0.21-6.504,0.304c-39.607,1.216-86.141,0.974-126.392-4.448
	c-0.801-7.709-1.555-15.634-2.273-23.537c33.105,4.378,77.134,6.226,125.4,4.623l2.395-0.089l2.295-0.083l4.209-0.182l-0.372-10.021
	c-2.157,0.108-4.326,0.209-6.505,0.304c-40.244,1.235-87.638,0.967-128.33-4.714l-1.28-14.705l-0.508-5.736
	c33.276,4.529,77.935,6.462,126.966,4.833l2.395-0.088l2.295-0.085l4.209-0.182l-0.372-10.022c-2.158,0.107-4.326,0.209-6.505,0.304
	c-40.762,1.25-88.86,0.959-129.897-4.936c-0.72-7.968-2.443-26.272-3.283-34.354c-0.019-0.183-0.137-1.735-0.292-3.802h124.528
	h142.943C467.45,1031.534,467.445,1034.536,467.44,1034.828z M448.888,683.628c-16.059,89.042-32.023,177.561-37.033,271.917
	l-0.003,0c-0.061,1.018-0.119,2.338-0.173,3.585c-0.185,4.276-0.314,7.251-2.125,9.796c-11.325-0.094-22.635-0.168-33.93-0.22
	c0.4-95.481,10.864-200.728,21.61-308.803c8.742-87.911,17.669-177.688,21.549-265.685c22.808,0.771,45.528,1.867,68.16,3.288
	C482.353,498.077,465.57,591.136,448.888,683.628z M498.227,398.243c19.981,1.352,39.894,2.957,59.738,4.817
	c-4.672,99.841-28.312,191.866-51.8,283.288c-22.911,89.179-45.675,177.79-50.792,272.882c-0.856,3.251-1.507,5.125-2.368,6.498
	c-0.666,1.062-1.689,2.146-3.229,3.62c-7.179-0.091-14.353-0.173-21.525-0.247l-6.261-0.063c0.699-2.782,0.83-5.801,0.987-9.421
	c0.041-0.941,0.084-1.945,0.173-3.408v-0.044c4.974-93.759,20.869-181.891,36.858-270.544
	C476.744,592.812,493.585,499.433,498.227,398.243z M385.986,658.796c-10.789,108.504-21.295,214.17-21.698,309.865
	c-8.708-0.03-17.408-0.047-26.098-0.052V392.846c23.188,0.009,46.288,0.348,69.298,1.017
	C403.62,481.458,394.711,571.058,385.986,658.796z M500.593,963.922c-1.288,2.25-2.787,4.292-4.498,6.125
	c-10.784-0.189-21.56-0.36-32.328-0.512c1.007-2.101,1.795-4.558,2.691-8.027l0.147-0.571l0.03-0.558
	c5-94.257,27.662-182.466,50.47-271.241c23.592-91.825,47.337-184.254,52.125-284.995c15.637,1.544,31.23,3.245,46.781,5.105
	c-1.846,38.461-7.304,79.741-16.373,123.836c-9.351,45.469-22.58,94.022-39.684,145.656l0.006,0.002
	c-16.115,47.153-28.813,93.785-38.089,139.895c-9.238,45.921-15.057,91.224-17.457,135.907
	C503.484,957.969,502.21,961.095,500.593,963.922z M641.51,489.997c-8.639,51.082-23.844,112.962-50.107,188.657l-0.007-0.002
	c-36.387,103.493-55.241,190.22-56.56,260.178v0.266c0.312,9.019-0.645,16.278-2.872,21.775c-1.796,4.435-4.451,7.671-7.965,9.707
	c-4.673-0.096-9.345-0.188-14.015-0.277c0.149-0.249,0.296-0.501,0.441-0.754c2.173-3.798,3.865-8.037,5.074-12.718l0.147-0.571
	l0.03-0.558c2.354-44.385,8.11-89.335,17.266-134.847c9.155-45.508,21.739-91.683,37.75-138.524l0.022-0.044
	c17.186-51.877,30.517-100.858,39.995-146.941c9.118-44.336,14.634-85.909,16.549-124.721c7.801,0.973,15.59,1.984,23.369,3.037
	C649.132,436.058,646.359,461.325,641.51,489.997z M338.24,341.718c-107.159,0.05-216.215,7.068-326.827,20.976
	c1.578-94.686,37.982-182.595,96.674-246.809C166.648,51.812,247.417,11.339,337.87,11.339c88.17,0,166.913,38.795,223.501,103.02
	c55.154,62.597,89.299,149.353,90.736,247.964C549.624,348.513,444.889,341.668,338.24,341.718z"/>
</svg>
