<?xml version="1.0" encoding="utf-8"?>
<!-- Generator: Adobe Illustrator 17.0.0, SVG Export Plug-In . SVG Version: 6.00 Build 0)  -->
<!DOCTYPE svg PUBLIC "-//W3C//DTD SVG 1.1//EN" "http://www.w3.org/Graphics/SVG/1.1/DTD/svg11.dtd">
<svg version="1.1" id="Layer_1" xmlns="http://www.w3.org/2000/svg" xmlns:xlink="http://www.w3.org/1999/xlink" x="0px" y="0px"
	 width="660.798px" height="1297.528px" viewBox="0 0 660.798 1297.528" enable-background="new 0 0 660.798 1297.528"
	 xml:space="preserve">
<path fill-rule="evenodd" clip-rule="evenodd" d="M390.184,1254.984l0.1-0.004l-2.919,2.507
	c-7.165,6.265-14.629,12.436-22.105,18.414c-0.773,0.627-13.625,1.806-19.903,2.339l-2.985,0.312l-3.001-0.089
	c-6.398-0.062-19.302-0.284-20.022-0.856c-7.998-5.403-15.9-11.004-23.51-16.719l-3.185-2.28l0.201-0.007l0.099-0.004l0.099-0.004
	l0.097-0.003l0.201-0.008l0.102,0.094l0.099-0.004l0.098-0.003l0.2-0.008l0.099-0.004l0.1-0.003l0.098-0.004l0.201-0.008
	l0.098-0.003l0.099-0.004l0.098-0.004l0.102,0.096l0.099-0.004l0.098-0.003l0.098-0.003l0.099-0.005l0.098-0.003l0.099-0.004
	l0.099-0.003l0.098-0.004l0.202-0.007l0.097-0.004l0.099-0.004l0.101,0.094l0.202-0.008l0.098-0.004l0.098-0.003l0.201-0.008
	l0.099-0.003l0.098-0.003l0.098-0.003l0.201-0.008l0.099-0.003l0.102,0.095l0.098-0.004l0.1-0.003l0.098-0.004l0.098-0.004
	l0.099-0.004l0.201-0.007l0.099-0.004l0.098-0.004l0.2-0.007l0.099-0.004l0.099-0.003l0.102,0.096l0.202-0.007l0.098-0.004
	l0.099-0.004l0.202-0.007l0.098-0.004l0.098-0.004l0.099-0.003l0.098-0.004l0.1-0.003l0.099-0.004l0.099-0.004l0.202-0.007
	l0.003,0.098l0.097-0.003l0.099-0.004l0.201-0.008l0.099-0.004l0.098-0.003c12.407,0.339,25.895,0.238,40.768-0.315
	c14.875-0.553,28.235-1.449,40.581-2.708l0.202-0.008l0.099-0.004l0.098-0.004l0.099-0.003l0.1-0.004l0.094-0.102l0.098-0.003
	l0.099-0.004l0.2-0.008l0.098-0.004l0.099-0.003l0.202-0.008l0.099-0.004l0.097-0.003l0.098-0.004l0.202-0.008l0.099-0.003
	l0.096-0.103l0.098-0.004l0.098-0.004l0.098-0.004l0.599-0.022l0.201-0.007l0.099-0.003l0.099-0.004l0.093-0.102l0.202-0.007
	l0.098-0.004l0.099-0.004l0.201-0.007l0.099-0.004l0.201-0.007l0.098-0.003l0.202-0.007l0.094-0.102l0.099-0.003l0.099-0.004
	l0.098-0.004l0.099-0.003l0.098-0.004l0.201-0.008l0.098-0.004l0.099-0.004l0.099-0.003l0.2-0.008l0.098-0.004l0.095-0.103
	l0.099-0.003l0.2-0.007l0.098-0.004l0.099-0.004l0.1-0.004l0.199-0.007l0.099-0.004l0.098-0.004l0.099-0.004l0.198-0.105
	l0.099-0.004l0.1-0.003l0.098-0.004L390.184,1254.984z M104.228,111.673c-59.48,64.668-96.107,153.555-97.1,249.946
	c111.73-14.148,221.463-21.223,329.197-21.223c107.663,0,213.441,7.061,317.333,21.182
	c-0.902-100.472-35.234-188.281-91.101-251.369C505.496,45.77,425.931,7.104,336.591,7.104
	C244.955,7.104,163.311,47.436,104.228,111.673z M524.542,969.79c0.101-0.069,0.201-0.14,0.301-0.21
	C524.744,969.651,524.644,969.721,524.542,969.79z M523.055,970.704l0.057-0.032c0.52-0.996,1.001-2.039,1.442-3.129
	c2.733-6.748,3.924-15.323,3.572-25.723c1.318-68.841,19.99-154.495,56.015-256.961v-0.016
	c26.497-76.366,41.832-140.045,50.541-192.178c5.016-30.024,7.842-56.226,9.339-78.823c0.027-0.411,0.004-0.833-0.063-1.257
	c2.243,0.297,4.485,0.596,6.726,0.9l0.246-4.021l0.007-0.117l0.007-0.116l0.007-0.117l0.007-0.117l0.007-0.117l0.001-0.021
	l0.006-0.096l0.007-0.117l0.007-0.118l0.007-0.118l0.007-0.119l0.007-0.119l0.194-3.141l-0.011-0.001
	c0.738-13.149,1.044-25.274,1.094-36.49C548.931,354.514,443.61,347.5,336.325,347.5c-107.375,0-216.61,7.022-327.701,21.063
	c0.056,10.854,0.392,23.001,1.205,36.488l-0.044,0.006c0.297,3.99,0.456,6.335,0.497,8.476c2.258-0.285,4.516-0.567,6.772-0.846
	c-0.058,0.688-0.062,1.463-0.003,2.33c1.514,22.329,4.331,48.143,9.26,77.649c8.709,52.134,24.044,115.813,50.541,192.178v0.017
	c36.025,102.465,54.697,188.119,56.015,256.96c-0.352,10.4,0.839,18.975,3.572,25.723c0.446,1.101,0.932,2.155,1.458,3.16
	c3.332-0.068,6.663-0.135,9.994-0.2c-1.427-1.733-2.62-3.782-3.579-6.149c-2.3-5.679-3.29-13.129-2.971-22.35v-0.199
	c-1.317-69.802-20.144-156.381-56.483-259.735l-0.005,0.002c-26.295-75.786-41.519-139.016-50.17-190.802
	c-4.903-29.342-7.72-55.03-9.183-77.192c-0.056-0.849-0.257-1.642-0.563-2.356c3.308-0.4,6.614-0.793,9.919-1.181
	c1.772,39.677,7.335,82.262,16.691,127.755c9.477,46.083,22.809,95.064,39.995,146.941l0.022,0.044
	c16.011,46.841,28.595,93.016,37.75,138.524c9.156,45.513,14.912,90.463,17.266,134.847l0.029,0.558l0.148,0.571
	c0.996,3.855,2.32,7.411,3.969,10.668v0c4.372-0.084,8.743-0.165,13.112-0.242c-0.782-1.055-1.506-2.166-2.174-3.333
	c-1.617-2.827-2.892-5.952-3.821-9.377c-2.399-44.683-8.218-89.986-17.457-135.907c-9.276-46.11-21.973-92.742-38.089-139.895
	l0.006-0.002C85.2,630.059,71.971,581.506,62.62,536.036c-9.301-45.228-14.804-87.493-16.507-126.794
	c5.809-0.657,11.612-1.293,17.411-1.911c4.507,101.746,30.043,194.253,55.414,286.15c24.358,88.233,48.562,175.902,53.563,270.175
	l0.029,0.558l0.148,0.571c0.531,2.057,1.025,3.759,1.548,5.241c4.163-0.07,8.325-0.136,12.485-0.2
	c-0.218-0.279-0.411-0.55-0.58-0.821c-0.861-1.374-1.512-3.248-2.368-6.499c-5.133-95.281-29.452-183.377-53.929-272.038
	c-25.26-91.499-50.687-183.606-55.048-284.314c6.045-0.619,12.085-1.218,18.118-1.794c4.485,101.803,28.445,195.074,52.25,287.728
	c22.808,88.775,45.47,176.983,50.47,271.241l0.03,0.558l0.148,0.571c0.528,2.043,1.018,3.735,1.538,5.21
	c4.167-0.059,8.332-0.116,12.495-0.17c-0.218-0.279-0.41-0.55-0.579-0.82c-0.861-1.375-1.512-3.247-2.368-6.498
	c-5.117-95.093-27.881-183.704-50.792-272.882c-23.7-92.246-47.555-185.106-51.923-285.989c9.058-0.827,18.103-1.605,27.136-2.336
	c4.449,102.156,23.738,196.539,42.904,290.314c18.231,89.197,36.349,177.843,41.334,271.806l0.029,0.558l0.148,0.571
	c0.525,2.03,1.012,3.714,1.528,5.183c4.169-0.05,8.337-0.098,12.504-0.143v0c-0.218-0.278-0.41-0.55-0.579-0.819
	c-0.861-1.374-1.511-3.246-2.367-6.496c-5.07-94.558-23.24-183.463-41.524-272.918c-19.103-93.465-38.329-187.537-42.702-288.944
	c9.68-0.741,19.344-1.428,28.995-2.059c4.431,102.758,19.511,197.398,34.503,291.48c14.076,88.338,28.074,176.184,33.03,269.609
	v0.044c0.088,1.463,0.132,2.467,0.173,3.408c0.105,2.432,0.199,4.593,0.461,6.593c3.873-0.037,7.744-0.073,11.614-0.105
	c-0.562-1.93-0.659-4.173-0.78-6.974c-0.054-1.248-0.111-2.568-0.173-3.586c-4.989-93.953-19.037-182.11-33.163-270.761
	c-14.953-93.838-29.993-188.234-34.382-290.422c11.822-0.722,23.622-1.36,35.4-1.917c3.658,85.795,10.704,169.212,17.57,250.5
	c9.156,108.404,17.993,213.023,17.993,312.932l0.022,0.332c0.088,1.463,0.132,2.467,0.173,3.408
	c0.103,2.379,0.195,4.498,0.444,6.461c3.869-0.034,7.735-0.053,11.598-0.087c-0.534-1.904-0.63-4.114-0.748-6.861
	c-0.048-1.115-0.099-2.289-0.151-3.253c0-100.316-8.858-205.193-18.037-313.863c-6.888-81.545-13.956-165.227-17.573-250.078
	c12.113-0.518,24.203-0.949,36.27-1.292c2.069,48.846,4.36,97.971,6.65,147.061c6.944,148.901,13.874,297.501,14.164,428.168
	c3.781-0.018,7.561-0.033,11.339-0.046c-0.294-130.237-7.244-279.272-14.208-428.609c-2.297-49.252-4.596-98.536-6.643-146.869
	c15.247-0.364,30.457-0.588,45.63-0.672v576.099c2.569-0.002,5.136-0.003,7.703-0.002v-0.017h0.093v0.017l6.377,0.001V392.592
	c15.69,0.004,31.342,0.16,46.957,0.465c-2.05,48.411-4.353,97.779-6.654,147.113c-6.964,149.337-13.914,298.372-14.208,428.609
	c3.778,0.013,7.557,0.028,11.339,0.046v0c0.29-130.668,7.22-279.267,14.164-428.168c2.294-49.189,4.59-98.411,6.662-147.353
	c12.116,0.294,24.208,0.678,36.276,1.154c-3.612,84.999-10.692,168.826-17.591,250.509c-9.179,108.67-18.037,213.547-18.034,313.863
	c-0.054,0.964-0.105,2.138-0.153,3.253c-0.119,2.747-0.215,4.958-0.748,6.862c3.865,0.027,7.731,0.056,11.599,0.087
	c0.249-1.963,0.341-4.083,0.444-6.462c0.041-0.941,0.085-1.945,0.173-3.408l0.022-0.332c0-99.909,8.837-204.529,17.993-312.932
	c6.878-81.435,13.937-165.007,17.59-250.966c11.825,0.522,23.627,1.132,35.404,1.83c-4.358,102.401-19.426,196.969-34.406,290.976
	c-14.126,88.651-28.174,176.808-33.163,270.761c-0.061,1.018-0.119,2.338-0.173,3.585c-0.121,2.802-0.219,5.045-0.781,6.975v0
	c3.869,0.033,7.741,0.068,11.614,0.105c0.262-2,0.356-4.161,0.461-6.593c0.041-0.941,0.085-1.945,0.173-3.408v-0.044
	c4.956-93.425,18.954-181.271,33.031-269.609c15.02-94.256,30.128-189.074,34.528-292.053c9.682,0.62,19.348,1.3,28.996,2.039
	c-4.324,101.633-23.588,195.889-42.729,289.536c-18.284,89.455-36.454,178.36-41.524,272.918c-0.856,3.25-1.507,5.123-2.367,6.496
	c-0.169,0.27-0.361,0.541-0.579,0.82l0,0c4.167,0.045,8.335,0.092,12.505,0.143c0.516-1.469,1.004-3.153,1.528-5.184l0.147-0.571
	l0.03-0.558c4.984-93.963,23.103-182.61,41.334-271.806c19.204-93.956,38.531-188.522,42.93-290.905
	c9.06,0.738,18.105,1.529,27.135,2.373C552.543,503.855,528.643,596.885,504.9,689.3c-22.911,89.179-45.675,177.79-50.792,272.882
	c-0.856,3.251-1.507,5.124-2.368,6.498c-0.169,0.27-0.362,0.542-0.58,0.821c4.164,0.054,8.329,0.11,12.496,0.17v0
	c0.52-1.475,1.01-3.167,1.538-5.211l0.147-0.571l0.03-0.558c5-94.257,27.663-182.466,50.47-271.241
	c23.846-92.814,47.847-186.245,52.273-288.253c6.046,0.595,12.084,1.214,18.116,1.856c-4.303,100.889-29.77,193.138-55.069,284.777
	c-24.477,88.66-48.796,176.756-53.929,272.038c-0.856,3.252-1.507,5.125-2.368,6.499c-0.169,0.27-0.362,0.542-0.581,0.822
	c4.16,0.064,8.322,0.131,12.485,0.2c0.524-1.483,1.017-3.184,1.549-5.242l0.147-0.571l0.03-0.558
	c5.001-94.273,29.204-181.943,53.563-270.175c25.405-92.022,50.976-184.656,55.432-286.564c5.809,0.647,11.611,1.318,17.407,2.009
	c-1.688,39.39-7.194,81.76-16.521,127.11c-9.351,45.469-22.58,94.022-39.685,145.656l0.006,0.002
	c-16.116,47.154-28.813,93.785-38.089,139.895c-9.238,45.921-15.057,91.224-17.457,135.907c-0.93,3.425-2.204,6.551-3.821,9.377
	c-0.668,1.167-1.393,2.279-2.175,3.333c4.369,0.078,8.74,0.159,13.112,0.243c1.65-3.257,2.974-6.813,3.97-10.669l0.147-0.571
	l0.03-0.558c2.355-44.385,8.11-89.335,17.266-134.847c9.155-45.508,21.739-91.683,37.75-138.524l0.022-0.044
	c17.186-51.877,30.517-100.858,39.995-146.941c9.375-45.586,14.942-88.252,16.702-127.998c3.203,0.398,6.403,0.803,9.602,1.215
	c-0.1,0.603-0.176,1.274-0.226,2.017c-1.481,22.31-4.271,48.156-9.214,77.74c-8.651,51.786-23.875,115.015-50.17,190.802
	l-0.005-0.002c-36.338,103.355-55.166,189.933-56.483,259.735v0.199c0.319,9.221-0.672,16.672-2.971,22.35
	c-0.959,2.367-2.153,4.418-3.581,6.151C516.418,970.569,519.736,970.636,523.055,970.704z M660.798,365.192
	c0,32.814-2.094,73.499-10.828,125.139c-8.71,51.501-24.045,113.905-50.541,190.266v0.017
	c-36.026,102.465-54.697,188.119-56.015,256.96c0.352,10.4-0.839,18.975-3.572,25.723c-2.717,6.708-6.919,11.637-12.603,14.786
	c-4.919,9.716-10.161,18.355-15.725,25.917c-5.843,7.94-12.033,14.674-18.569,20.199l-1.199,1.013h-1.542h-0.991h-8
	c-0.005,3.894-0.01,8.338-0.02,8.882c-0.212,10.699-0.326,29.731-0.446,40.997c-0.432,34.102-0.862,73.599-4.304,99.417
	l-2.626,20.789c-1.571,3.458-8.64,12.317-19.899,24.03c-4.523,4.668-9.721,10.058-15.705,15.778l0.796-0.127l-19.718,18.123
	c-6.956,6.455-14.51,13.033-22.259,19.717c-7.066,6.159-14.633,12.339-22.595,18.733c-4.173,3.353-20.109,4.843-27.88,5.536
	c-1.194,0.141-2.092,0.175-3.089,0.316l-0.694,0.124l-0.603-0.076c-1-0.062-1.901-0.029-3.102-0.086
	c-7.801-0.11-23.804-0.417-28.317-3.447c-8.313-5.789-16.316-11.39-23.821-17.008c-8.323-6.087-16.243-12.09-23.66-18.01
	l-21.01-16.61l0.803,0.068c-6.391-5.26-12.076-10.246-16.934-14.565c-11.997-10.849-19.802-19.155-21.626-22.486l-3.929-19.647
	c-5.447-25.486-8.825-65.344-11.801-99.717c-1.407-16.53-3.865-43.414-5.266-55.773c-0.024-0.215-0.195-2.508-0.377-4.957h-9.277
	c-3.008-0.068-5.486-0.85-7.435-2.346c-5.975-5.27-11.655-11.565-17.04-18.885c-5.559-7.557-10.796-16.19-15.711-25.898
	c-5.684-3.149-9.886-8.078-12.603-14.786c-2.733-6.748-3.924-15.324-3.572-25.723c-1.318-68.841-19.99-154.495-56.015-256.96v-0.017
	c-26.497-76.366-41.832-140.044-50.541-192.178c-8.312-49.758-10.61-89.015-10.813-118.772L0,369.663v-4.023
	c0-99.753,37.533-191.928,99.01-258.769C159.396,41.219,242.87,0,336.591,0c91.438,0,172.869,39.571,231.267,105.518
	c57.656,65.11,92.823,155.916,92.924,259.674H660.798z M411.856,1198.803c-15.973,3.291-34.087,5.362-56.326,6.69l-0.398,0.015
	l-0.897,0.033l-0.299,0.011l-0.997,0.037l-0.301,0.011l-0.996,0.037l-0.299,0.011l-0.995,0.037l-0.202,0.007l-1.095,0.14l-0.2,0.007
	l-1.1,0.041l-0.2,0.007l-1.196,0.045l-0.099,0.003l-1.198,0.045l-0.201,0.007l-1.197,0.045l-0.098,0.003l-1.297,0.048l-1.295,0.048
	l-0.1,0.004l-1.296,0.048l-1.397,0.052l-1.297,0.048l-0.098,0.003l-1.294,0.048l-0.099,0.004l-1.198,0.045l-0.099,0.004
	l-1.198,0.044l-0.201,0.008l-1.099,0.041l-0.201,0.007l-1.098,0.041l-0.299,0.011l-1-0.063l-0.3,0.012l-0.996,0.037l-0.3,0.011
	l-0.996,0.037l-0.299,0.011l-0.898,0.034l-0.398,0.014l-0.897,0.033l-0.399,0.015c-22.178,0.323-40.499-0.394-56.568-2.495
	c-17.573-2.246-32.808-5.978-47.802-11.42c-1.961-4.7-3.714-11.822-5.299-20.549c32.404,3.874,74.242,5.442,119.863,3.926
	l2.395-0.089l2.295-0.084l4.209-0.182l-0.372-10.021c-2.158,0.108-4.325,0.21-6.504,0.304c-38.683,1.187-83.973,0.985-123.566-4.078
	c-1.049-7.003-2.022-14.676-2.934-22.719c32.852,4.179,76.032,5.916,123.269,4.347l2.395-0.089l2.295-0.084l4.209-0.182
	l-0.372-10.021c-2.157,0.108-4.325,0.21-6.504,0.304c-39.607,1.216-86.141,0.974-126.392-4.448
	c-0.801-7.709-1.555-15.634-2.273-23.537c33.105,4.378,77.134,6.226,125.4,4.623l2.395-0.089l2.295-0.083l4.209-0.182l-0.372-10.021
	c-2.157,0.108-4.326,0.209-6.505,0.304c-40.244,1.235-87.639,0.967-128.33-4.714l-1.28-14.705l-0.508-5.736
	c33.276,4.529,77.935,6.462,126.966,4.833l2.395-0.089l2.295-0.085l4.21-0.182l-0.372-10.022c-2.158,0.107-4.326,0.209-6.505,0.304
	c-40.762,1.25-88.86,0.959-129.897-4.935c-0.72-7.968-2.443-26.272-3.283-34.354c-0.029-0.276-0.207-2.686-0.395-5.219h124.631
	h142.938c-0.002,3.733-0.002,7.903-0.01,8.322c-0.168,9.705-0.269,27.609-0.353,37.42c-0.505,42.997-1.178,94.8-7.201,112.916
	C444.032,1190.41,429.218,1195.258,411.856,1198.803z"/>
</svg>
