<?xml version="1.0" encoding="UTF-8"?>
<!DOCTYPE svg PUBLIC "-//W3C//DTD SVG 1.1//EN" "http://www.w3.org/Graphics/SVG/1.1/DTD/svg11.dtd">
<!-- Creator: CorelDRAW X7 -->
<svg xmlns="http://www.w3.org/2000/svg" xml:space="preserve" width="723px" height="1029px" version="1.1" style="shape-rendering:geometricPrecision; text-rendering:geometricPrecision; image-rendering:optimizeQuality; fill-rule:evenodd; clip-rule:evenodd"
viewBox="0 0 726 1032"
 xmlns:xlink="http://www.w3.org/1999/xlink">
 <defs>
  <style type="text/css">
   <![CDATA[
    .str0 {stroke:#2B2A29;stroke-width:2.3693}
    .fil0 {fill:none;fill-rule:nonzero}
    .fil2 {fill:#2B2A29}
    .fil1 {fill:#2B2A29;fill-rule:nonzero}
   ]]>
  </style>
 </defs>
 <g id="Layer_x0020_1">
  <metadata id="CorelCorpID_0Corel-Layer"/>
  <path class="fil0 str0" d="M287 31c38,-3 52,-1 79,2 27,3 54,9 80,18 28,9 54,21 77,35 24,15 45,32 61,52 17,21 27,42 29,63 2,21 -4,40 -17,58 -14,18 -35,33 -62,43 -28,11 -62,17 -100,17 -37,0 -74,-5 -108,-15 -34,-9 -65,-22 -92,-37 -25,-15 -46,-32 -62,-50 -16,-17 -26,-36 -31,-55 -5,-18 -4,-34 1,-49 6,-15 15,-28 28,-39 26,-22 78,-39 117,-43z"/>
  <path class="fil1" d="M10 878c2,2 3,5 4,7 2,3 3,5 5,8 12,16 30,32 52,47l0 0c23,15 50,28 81,40 38,14 81,25 127,33 44,7 91,11 138,11 44,-1 85,-5 121,-12 37,-7 70,-17 97,-30 26,-12 46,-26 60,-42 13,-15 21,-31 22,-48l0 -5 -1 -5c-3,-113 -15,-266 -29,-400 -15,-142 -31,-261 -40,-281l0 0 -1 -1c-1,-5 -3,-11 -6,-16 -2,-6 -5,-11 -8,-17l0 0c-15,-26 -37,-50 -64,-71 -28,-22 -61,-40 -96,-55 -33,-13 -68,-22 -104,-28 -34,-5 -70,-6 -103,-2 -32,4 -60,11 -84,22 -25,11 -45,25 -60,42 -6,6 -10,12 -14,19 -5,6 -8,13 -11,20l0 1c-9,19 -28,145 -47,295 -16,132 -31,283 -38,398 0,10 -1,21 -1,31 -1,10 -1,19 -1,28l0 0c0,2 0,4 0,6 1,2 1,3 1,5zm-3 12c-2,-3 -3,-6 -5,-9l0 0 0 0c-1,-2 -1,-4 -1,-7 -1,-2 -1,-4 -1,-7l0 0c0,-9 1,-19 1,-29 0,-10 1,-20 2,-31 6,-115 21,-266 37,-398 19,-151 39,-278 48,-298l0 0c3,-8 7,-15 11,-22 4,-7 10,-14 15,-20 16,-18 37,-33 63,-44 25,-11 54,-19 87,-23 34,-3 70,-3 106,3 36,5 72,15 105,28 36,15 70,34 99,56 27,22 50,47 65,74l0 0c4,6 7,11 9,17 3,6 5,12 7,17 10,22 26,141 41,285 14,133 26,287 29,400l0 0 0 5 1 5 0 0c-1,20 -10,38 -24,54 -15,17 -37,32 -63,44 -28,13 -61,24 -100,31 -36,7 -77,11 -122,11 -47,1 -95,-3 -140,-10 -46,-8 -89,-19 -128,-34 -32,-12 -60,-25 -83,-41l0 0c-23,-15 -41,-32 -54,-49 -2,-3 -4,-6 -5,-8zm318 -581c-17,-5 -33,-10 -49,-17 -16,-6 -31,-14 -44,-22 -13,-7 -25,-15 -35,-23 -11,-9 -20,-18 -28,-27 -8,-9 -15,-18 -21,-28 -5,-9 -9,-19 -12,-29 -2,-9 -3,-18 -3,-26 1,-9 2,-18 5,-26 3,-7 7,-15 12,-22 5,-6 11,-13 18,-19 12,-11 31,-20 51,-28 22,-8 47,-13 67,-15 39,-4 53,-2 80,1l1 1c13,1 27,4 41,7 13,3 27,6 39,11 14,4 28,10 42,16 13,6 25,12 37,19 12,8 24,16 34,25 10,9 20,18 28,28 8,11 15,22 20,32 5,11 8,22 9,33 1,11 0,22 -3,32 -3,11 -8,20 -15,30 -7,9 -16,17 -27,25 -10,7 -23,14 -37,19 -14,6 -30,10 -47,13 -17,3 -35,4 -54,4 -19,0 -37,-1 -55,-3 -18,-3 -37,-6 -54,-11z"/>
  <path class="fil2" d="M456 717c11,0 19,9 19,20 0,10 -8,19 -19,19 -11,0 -20,-9 -20,-19 0,-11 9,-20 20,-20z"/>
 </g>
</svg>
